<svg data-v-29081953="" xmlns="http://www.w3.org/2000/svg" viewBox="0 0 300 300"><!----><defs data-v-29081953=""><!----></defs><rect data-v-29081953="" fill="transparent" x="0" y="0" width="300px" height="300px" class="logo-background-square"></rect><defs data-v-29081953=""><!----></defs><g data-v-29081953="" id="17feb97e-a632-46a2-8f01-a787d4c721f3" fill="#000000" transform="matrix(2.1043675414069507,0,0,2.1043675414069507,111.6000100510852,130.99756065958135)"><path d="M1.04 14.55L2.37 14.55L2.37 10.08L3.65 10.08C3.81 10.08 4.13 10.08 4.26 10.07L5.85 14.55L7.34 14.55L5.53 9.80C6.52 9.45 7 8.69 7 7.20L7 6.79C7 4.59 5.82 3.88 3.78 3.88L1.04 3.88ZM5.68 7.11C5.68 8.48 5.29 8.93 3.89 8.93L2.37 8.93L2.37 5.05L3.78 5.05C5.03 5.05 5.68 5.38 5.68 6.89ZM9.76 9.28C9.76 7.67 10.16 7.21 11.38 7.21C12.59 7.21 12.99 7.67 12.99 9.28L12.99 11.51C12.99 13.12 12.59 13.58 11.38 13.58C10.16 13.58 9.76 13.12 9.76 11.51ZM11.38 6.08C9.38 6.08 8.47 6.93 8.47 9.27L8.47 11.52C8.47 13.86 9.38 14.71 11.38 14.71C13.38 14.71 14.29 13.86 14.29 11.52L14.29 9.27C14.29 6.93 13.38 6.08 11.38 6.08ZM17.35 3.74L16.06 3.74L16.06 14.55L17.29 14.55L17.32 13.97C17.70 14.43 18.40 14.71 19.22 14.71C20.69 14.71 21.87 13.83 21.87 11.58L21.87 9.28C21.87 7.20 21.04 6.08 19.35 6.08C18.41 6.08 17.72 6.36 17.35 6.80ZM17.35 8.88C17.35 7.76 17.99 7.21 18.98 7.21C20.10 7.21 20.58 7.87 20.58 9.25L20.58 11.51C20.58 13.05 19.95 13.58 18.96 13.58C18.05 13.58 17.35 13.10 17.35 11.76ZM27.19 3.88L27.19 14.55L28.48 14.55L28.48 6.20L30.58 11.14L31.67 11.14L33.78 6.10L33.78 14.55L35.07 14.55L35.07 3.88L33.59 3.88L31.16 9.69L28.77 3.88ZM41.34 12.22C41.31 13.17 40.92 13.61 39.79 13.61C38.58 13.61 38.16 13.03 38.16 11.63L38.16 10.71L42.62 10.71L42.62 9.17C42.62 7.04 41.73 6.08 39.77 6.08C37.84 6.08 36.89 7.08 36.89 9.24L36.89 11.54C36.89 13.82 37.80 14.71 39.80 14.71C41.72 14.71 42.50 13.87 42.55 12.22ZM39.79 7.20C41.01 7.20 41.38 7.87 41.38 9.23L41.38 9.69L38.16 9.69L38.16 9.30C38.16 7.80 38.58 7.20 39.79 7.20ZM44.34 6.24L44.34 14.55L45.63 14.55L45.63 9.38C45.63 8.02 46.44 7.41 47.46 7.41C47.67 7.41 47.82 7.42 47.98 7.45L47.98 6.12C47.87 6.10 47.71 6.09 47.57 6.09C46.65 6.09 45.91 6.62 45.57 7.22L45.46 6.24ZM53.48 11.84L53.48 11.96C53.48 12.98 53.09 13.58 51.87 13.58C50.64 13.58 50.25 12.95 50.25 11.51L50.25 9.24C50.25 7.76 50.69 7.22 51.90 7.22C53.07 7.22 53.45 7.77 53.45 8.78L53.45 8.90L54.70 8.90L54.70 8.76C54.70 6.99 53.87 6.08 51.90 6.08C49.94 6.08 48.96 6.97 48.96 9.25L48.96 11.51C48.96 13.80 49.88 14.71 51.86 14.71C53.89 14.71 54.73 13.76 54.73 11.94L54.73 11.84ZM57.67 6.24L56.38 6.24L56.38 14.55L57.67 14.55ZM57.68 3.35L56.36 3.35L56.36 4.70L57.68 4.70ZM63.88 12.22C63.85 13.17 63.46 13.61 62.33 13.61C61.12 13.61 60.70 13.03 60.70 11.63L60.70 10.71L65.16 10.71L65.16 9.17C65.16 7.04 64.27 6.08 62.31 6.08C60.38 6.08 59.43 7.08 59.43 9.24L59.43 11.54C59.43 13.82 60.34 14.71 62.34 14.71C64.26 14.71 65.04 13.87 65.09 12.22ZM62.33 7.20C63.55 7.20 63.92 7.87 63.92 9.23L63.92 9.69L60.70 9.69L60.70 9.30C60.70 7.80 61.12 7.20 62.33 7.20ZM66.88 6.24L66.88 14.55L68.17 14.55L68.17 9.38C68.17 8.02 68.98 7.41 70 7.41C70.21 7.41 70.36 7.42 70.52 7.45L70.52 6.12C70.41 6.10 70.25 6.09 70.11 6.09C69.19 6.09 68.45 6.62 68.11 7.22L68.00 6.24Z"></path></g><defs data-v-29081953=""><linearGradient data-v-29081953="" gradientTransform="rotate(25)" id="08f3f120-2248-4a68-923d-3fda9188ba9e" x1="0%" y1="0%" x2="100%" y2="0%"><stop data-v-29081953="" offset="0%" stop-color="#276D8E" stop-opacity="1"></stop><stop data-v-29081953="" offset="100%" stop-color="#DDDFD4" stop-opacity="1"></stop></linearGradient></defs><g data-v-29081953="" id="91cc9d45-5dfb-41fb-bfca-830f96332b30" stroke="none" fill="url(#08f3f120-2248-4a68-923d-3fda9188ba9e)" transform="matrix(1.8995829273255602,0,0,1.8995829273255602,40.001899898142845,119.60572570464687)"><circle cx="7.957" cy="12.389" r="3.926"></circle><path d="M7.771 25.439l-3.793-8.222s-3.979.053-3.979 3.713v4.509h7.772zM8.143 25.439l3.793-8.222s3.979.053 3.979 3.713v4.509H8.143zM7.957 17.216H5.225l2.732 6.048 2.732-6.048zM13.097 11.842l6.249-3.219v.929l-5.266 2.64v.027l5.266 2.64v.929l-6.249-3.219v-.727zM20.226 16.327l3.757-9.765h.916l-3.771 9.765h-.902zM32 12.581l-6.249 3.206v-.929l5.307-2.64v-.027l-5.307-2.64v-.928L32 11.828v.753z"></path></g><!----></svg>