<svg data-v-29081953="" xmlns="http://www.w3.org/2000/svg" viewBox="0 0 300 300"><!----><defs data-v-29081953=""><!----></defs><rect data-v-29081953="" fill="transparent" x="0" y="0" width="300px" height="300px" class="logo-background-square"></rect><!----><defs data-v-29081953=""><linearGradient data-v-29081953="" gradientTransform="rotate(25)" id="b51f7730-accb-40a2-9d06-31cf5f8b50f8" x1="0%" y1="0%" x2="100%" y2="0%"><stop data-v-29081953="" offset="0%" stop-color="#276D8E" stop-opacity="1"></stop><stop data-v-29081953="" offset="100%" stop-color="#DDDFD4" stop-opacity="1"></stop></linearGradient></defs><g data-v-29081953="" id="859d8c5e-fd64-4836-924b-200a0d624bc9" fill="url(#b51f7730-accb-40a2-9d06-31cf5f8b50f8)" stroke="none" transform="matrix(6.87478528097348,0,0,6.87478528097348,40.006875926078244,40.00000655630616)"><circle cx="7.957" cy="12.389" r="3.926"></circle><path d="M7.771 25.439l-3.793-8.222s-3.979.053-3.979 3.713v4.509h7.772zM8.143 25.439l3.793-8.222s3.979.053 3.979 3.713v4.509H8.143zM7.957 17.216H5.225l2.732 6.048 2.732-6.048zM13.097 11.842l6.249-3.219v.929l-5.266 2.64v.027l5.266 2.64v.929l-6.249-3.219v-.727zM20.226 16.327l3.757-9.765h.916l-3.771 9.765h-.902zM32 12.581l-6.249 3.206v-.929l5.307-2.64v-.027l-5.307-2.64v-.928L32 11.828v.753z"></path></g><!----></svg>